<?xml version="1.0" standalone="no"?>
<!DOCTYPE svg PUBLIC "-//W3C//DTD SVG 20010904//EN"
 "http://www.w3.org/TR/2001/REC-SVG-20010904/DTD/svg10.dtd">
<svg version="1.0" xmlns="http://www.w3.org/2000/svg"
 width="512.000000pt" height="512.000000pt" viewBox="0 0 512.000000 512.000000"
 preserveAspectRatio="xMidYMid meet">

<g transform="translate(0.000000,512.000000) scale(0.100000,-0.100000)"
fill="#fff" stroke="none">
<path d="M800 2560 l0 -2480 1360 0 1360 0 0 963 0 962 160 160 160 160 0
-1123 0 -1122 160 0 160 0 0 1402 0 1403 -1122 -1121 -1123 -1121 -229 -117
c-125 -64 -230 -115 -233 -113 -2 3 48 108 111 233 l114 229 921 920 921 920
0 1162 0 1163 -1360 0 -1360 0 0 -2480z m2080 2240 l0 -80 -80 0 -80 0 0 80 0
80 80 0 80 0 0 -80z m320 0 l0 -80 -80 0 -80 0 0 80 0 80 80 0 80 0 0 -80z
m80 -1440 l0 -560 -800 0 -800 0 0 560 0 560 800 0 800 0 0 -560z"/>
<path d="M3840 4038 l0 -1003 160 160 160 160 0 842 0 843 -160 0 -160 0 0
-1002z"/>
</g>
</svg>
